<?xml version="1.0" encoding="UTF-8" standalone="no"?>
<!-- Created with Inkscape (http://www.inkscape.org/) -->

<svg
   width="210mm"
   height="297mm"
   viewBox="0 0 210 297"
   version="1.1"
   id="svg5"
   inkscape:version="1.1.2 (b8e25be833, 2022-02-05)"
   sodipodi:docname="playbtn.svg"
   inkscape:export-filename="C:\Users\remla\Documents\Unity\UnityMobileGameTemplate\Assets\CubeRunner\Assets\playBtn2.png"
   inkscape:export-xdpi="300"
   inkscape:export-ydpi="300"
   xmlns:inkscape="http://www.inkscape.org/namespaces/inkscape"
   xmlns:sodipodi="http://sodipodi.sourceforge.net/DTD/sodipodi-0.dtd"
   xmlns="http://www.w3.org/2000/svg"
   xmlns:svg="http://www.w3.org/2000/svg">
  <sodipodi:namedview
     id="namedview7"
     pagecolor="#505050"
     bordercolor="#eeeeee"
     borderopacity="1"
     inkscape:showpageshadow="0"
     inkscape:pageopacity="0"
     inkscape:pagecheckerboard="0"
     inkscape:deskcolor="#505050"
     inkscape:document-units="mm"
     showgrid="false"
     inkscape:zoom="0.4204826"
     inkscape:cx="99.885226"
     inkscape:cy="507.7499"
     inkscape:window-width="1294"
     inkscape:window-height="1082"
     inkscape:window-x="-18"
     inkscape:window-y="237"
     inkscape:window-maximized="0"
     inkscape:current-layer="layer1"
     inkscape:pageshadow="0" />
  <defs
     id="defs2" />
  <g
     inkscape:label="Calque 1"
     inkscape:groupmode="layer"
     id="layer1">
    <circle
       style="fill:#c8595d;fill-opacity:1;stroke:none;stroke-width:0.499999;stroke-linecap:round;stroke-linejoin:round"
       id="path234"
       cx="104.33796"
       cy="85.205627"
       r="74.082169"
       inkscape:export-filename="C:\Users\remla\Documents\Unity\UnityMobileGameTemplate\Assets\CubeRunner\Assets\playBtn2.png"
       inkscape:export-xdpi="300"
       inkscape:export-ydpi="300" />
    <path
       id="path234-2"
       style="fill:#b73d41;fill-opacity:0.52208835;stroke:none;stroke-width:0.499999;stroke-linecap:round;stroke-linejoin:round"
       d="m 69.40226,19.713316 a 74.082169,74.082169 0 0 0 -39.14644,65.269914 74.082169,74.082169 0 0 0 74.0823,74.0823 74.082169,74.082169 0 0 0 48.50608,-18.15651 74.082169,74.082169 0 0 1 -34.93585,8.81238 74.082169,74.082169 0 0 1 -74.08179,-74.081782 74.082169,74.082169 0 0 1 25.5757,-55.926302 z"
       inkscape:export-filename="C:\Users\remla\Documents\Unity\UnityMobileGameTemplate\Assets\CubeRunner\Assets\playBtn2.png"
       inkscape:export-xdpi="300"
       inkscape:export-ydpi="300" />
    <path
       style="fill:#ffffff;fill-opacity:0.79919678;stroke:none;stroke-width:0;stroke-linecap:round;stroke-linejoin:round;stroke-dasharray:none;stroke-opacity:0.86"
       d="m 68.20849,45.497367 c -3.452063,1.732807 -3.796165,71.208513 0,74.764783 3.796166,3.55628 92.42208,-32.491386 92.47217,-37.220325 0.0501,-4.728939 -89.020107,-39.277265 -92.47217,-37.544458 z"
       id="path4264"
       sodipodi:nodetypes="zzzz"
       inkscape:export-filename="C:\Users\remla\Documents\Unity\UnityMobileGameTemplate\Assets\CubeRunner\Assets\playBtn2.png"
       inkscape:export-xdpi="300"
       inkscape:export-ydpi="300" />
    <path
       id="path234-2-9"
       style="fill:#ffffff;fill-opacity:0.738956;stroke:none;stroke-width:0.499999;stroke-linecap:round;stroke-linejoin:round"
       d="m -103.65045,161.83645 a 74.082169,74.082169 0 0 0 -39.14644,65.26992 74.082169,74.082169 0 0 0 74.082298,74.0823 74.082169,74.082169 0 0 0 48.50608,-18.15651 74.082169,74.082169 0 0 1 -34.93585,8.81238 74.082169,74.082169 0 0 1 -74.081788,-74.08179 74.082169,74.082169 0 0 1 25.5757,-55.9263 z"
       inkscape:export-filename="C:\Users\remla\Documents\Unity\UnityMobileGameTemplate\Assets\CubeRunner\Assets\playBtn2.png"
       inkscape:export-xdpi="300"
       inkscape:export-ydpi="300" />
    <path
       style="fill:#ffffff;fill-opacity:1;stroke:none;stroke-width:0;stroke-linecap:round;stroke-linejoin:round;stroke-dasharray:none;stroke-opacity:0.86"
       d="m -96.579262,184.64657 c -3.509928,1.76186 -3.859798,72.4022 0,76.01808 3.85981,3.61589 93.9713807,-33.03605 94.0223107,-37.84426 0.051,-4.80821 -90.5123707,-39.93567 -94.0223107,-38.17382 z"
       id="path4264-5"
       sodipodi:nodetypes="zzzz"
       inkscape:export-filename="C:\Users\remla\Documents\Unity\UnityMobileGameTemplate\Assets\CubeRunner\Assets\playBtn2.png"
       inkscape:export-xdpi="300"
       inkscape:export-ydpi="300" />
  </g>
</svg>
